P3
#image de test
24 7
255
0 0 0  0 0 0  0 0 0  0 0 0  0 0 0  0 0 0  0 0 0  0 0 0  0 0 0  0 0 0  0 0 0  0 0 0  0 0 0  0 0 0  0 0 0  0 0 0  0 0 0  0 0 0  0 0 0  0 0 0  0 0 0  0 0 0  0 0 0  0 0 0
0 0 0  0 0 255  0 0 255  0 0 255  0 0 255  0 0 0  0 0 0  255 255 255  255 255 255  255 255 255  255 255 255  0 0 0  0 0 0 255 0 0 255 0 0 255 0 0 255 0 0  0 0 0  0 0 0 0 255 0 0 255 0 0 255 0 0 255 0  0 0 0
0 0 0  0 0 255  0 0 0  0 0 0  0 0 0  0 0 0  0 0 0  255 255 255  0 0 0  0 0 0  0 0 0  0 0 0  0 0 0 255 0 0  0 0 0  0 0 0  0 0 0  0 0 0  0 0 0 0 255 0  0 0 0  0 0 0 0 255 0  0 0 0
0 0 0  0 0 255  0 0 255  0 0 255  0 0 0  0 0 0  0 0 0  255 255 255  255 255 255  255 255 255  0 0 0  0 0 0  0 0 0 255 0 0 255 0 0 255 0 0  0 0 0  0 0 0  0 0 0 0 255 0 0 255 0 0 255 0 0 255 0  0 0 0
0 0 0  0 0 255  0 0 0  0 0 0  0 0 0  0 0 0  0 0 0  255 255 255  0 0 0  0 0 0  0 0 0  0 0 0  0 0 0 255 0 0  0 0 0  0 0 0  0 0 0  0 0 0  0 0 0 0 255 0  0 0 0  0 0 0  0 0 0  0 0 0
0 0 0  0 0 255  0 0 0  0 0 0  0 0 0  0 0 0  0 0 0  255 255 255  255 255 255  255 255 255  255 255 255  0 0 0  0 0 0 255 0 0 255 0 0 255 0 0 255 0 0  0 0 0  0 0 0 0 255 0  0 0 0  0 0 0  0 0 0  0 0 0
0 0 0  0 0 0  0 0 0  0 0 0  0 0 0  0 0 0  0 0 0  0 0 0  0 0 0  0 0 0  0 0 0  0 0 0  0 0 0  0 0 0  0 0 0  0 0 0  0 0 0  0 0 0  0 0 0  0 0 0  0 0 0  0 0 0  0 0 0  0 0 0